# xmcd
#
# Track frame offsets: 
#        150
#        15312
#        37507
#        50547
#        65890
#        87270
#        103832
#        117957
#        130742
#        146082
#        160585
#        175818
#        189233
#        203113
#        217170
#        231163
#        245590
#        262755
#        279843
#        295495
#
# Disc length: 4104 seconds
#
# Revision: 0
# Processed by: cddbd v1.5.2PL0 Copyright (c) Steve Scherf et al.
# Submitted via: ExactAudioCopy v0.95b4
#
DISCID=1b100614
DTITLE=Bonnie Raitt - Green Lite - Home Plate
DYEAR=1982
DGENRE=Rock and Roll
TTITLE0=01 Keep This Heart In Mind
TTITLE1=02 River of Tears
TTITLE2=03 Can't Get Enough
TTITLE3=04 Willya Wontcha
TTITLE4=05 Let's Keep it Between Us
TTITLE5=06 Me and the Boys
TTITLE6=07 I Can't Help Myself
TTITLE7=08 Baby Come Back
TTITLE8=09 Talk To Me
TTITLE9=10 Green Lights
TTITLE10=11 What Do You Want The Boy To Do?
TTITLE11=12 Good Enough
TTITLE12=13 Run Like A Theif
TTITLE13=14 Fool Yourself
TTITLE14=15 My First Night Alone Without You
TTITLE15=16 Walk Out The Front Door
TTITLE16=17 Sugar Mama
TTITLE17=18 Pleasin' Each Other
TTITLE18=19 I'm Blown Away
TTITLE19=20 Your Sweet And Shiny Eyes
EXTD=
EXTT0=
EXTT1=
EXTT2=
EXTT3=
EXTT4=
EXTT5=
EXTT6=
EXTT7=
EXTT8=
EXTT9=
EXTT10=
EXTT11=
EXTT12=
EXTT13=
EXTT14=
EXTT15=
EXTT16=
EXTT17=
EXTT18=
EXTT19=
PLAYORDER=
